<svg width="105" height="122" viewBox="0 0 105 122" fill="none" xmlns="http://www.w3.org/2000/svg">
<g opacity="0.5">
<path opacity="0.5" d="M52.5 115C81.4949 115 105 89.2564 105 57.5C105 25.7436 81.4949 0 52.5 0C23.5051 0 0 25.7436 0 57.5C0 89.2564 23.5051 115 52.5 115Z" fill="url(#paint0_linear)"/>
</g>
<path d="M52.5 113C80.9427 113 104 87.9279 104 57C104 26.0721 80.9427 1 52.5 1C24.0573 1 1 26.0721 1 57C1 87.9279 24.0573 113 52.5 113Z" fill="#F5F5F5"/>
<path d="M52.6381 114C62.7203 114.018 72.5843 110.683 81 104.41C79.0985 92.6689 71.8627 92 71.8627 92H31.9606C31.9606 92 25.1325 92.6331 23 103.433C31.6765 110.329 42.03 114.021 52.6381 114V114Z" fill="#6C63FF"/>
<path d="M52 83C65.8071 83 77 70.9117 77 56C77 41.0883 65.8071 29 52 29C38.1929 29 27 41.0883 27 56C27 70.9117 38.1929 83 52 83Z" fill="#333333"/>
<path opacity="0.1" d="M44 79H60V92.5386C60 94.7821 59.1576 96.9338 57.6579 98.5206C56.1583 100.107 54.1242 100.999 52.003 101V101C49.8813 101 47.8465 100.109 46.3462 98.5217C44.8459 96.9349 44.003 94.7827 44.003 92.5386V79H44Z" fill="black"/>
<path d="M44.5042 78H59.4928C59.6273 78 59.7563 78.0591 59.8514 78.1643C59.9466 78.2695 60 78.4121 60 78.5609V92.1529C60.0002 93.315 59.7934 94.4656 59.3913 95.5392C58.9892 96.6128 58.3998 97.5882 57.6568 98.4098C56.9137 99.2314 56.0315 99.8831 55.0607 100.327C54.0898 100.772 53.0492 101 51.9985 101V101C49.8772 101 47.8427 100.068 46.3427 98.4092C44.8427 96.7504 44 94.5006 44 92.1546V78.5609C44 78.4127 44.053 78.2706 44.1475 78.1655C44.2419 78.0604 44.3702 78.0009 44.5042 78V78Z" fill="#FDB797"/>
<path opacity="0.1" d="M44 85.277C49.1567 87.5563 54.8329 87.5747 60 85.329V83H44V85.277Z" fill="black"/>
<path d="M52 86C64.7025 86 75 74.8071 75 61C75 47.1929 64.7025 36 52 36C39.2974 36 29 47.1929 29 61C29 74.8071 39.2974 86 52 86Z" fill="#FDB797"/>
<path opacity="0.1" d="M36 38.2431C36 38.2431 45.6839 59.484 73 47.1486L66.6402 36.3724L55.3663 32L36 38.2431Z" fill="black"/>
<path d="M36 38.2458C36 38.2458 45.6839 59.4847 73 47.1472L66.6402 36.372L55.3663 32L36 38.2458Z" fill="#333333"/>
<path d="M35.4826 36.6925C36.1395 34.5645 37.2749 32.6327 38.7933 31.0591C43.3405 26.3553 50.7954 25.3634 54.619 20C55.5349 21.4886 54.8266 23.7774 53.2453 24.4163C56.9086 24.3907 61.1535 24.0553 63.2248 20.9024C63.7367 22.1494 63.8999 23.5228 63.6954 24.863C63.4908 26.2032 62.927 27.4551 62.0694 28.4732C65.316 28.6329 68.7855 30.9329 68.99 34.327C69.1305 36.5887 67.7689 38.7289 65.9998 40.0259C64.2307 41.3228 62.0755 41.9186 59.9614 42.4057C53.7887 43.832 31.4544 49.8008 35.4826 36.6925Z" fill="#333333"/>
<path d="M29 66C30.1046 66 31 63.9853 31 61.5C31 59.0147 30.1046 57 29 57C27.8954 57 27 59.0147 27 61.5C27 63.9853 27.8954 66 29 66Z" fill="#FDB797"/>
<path d="M75 66C76.1046 66 77 63.9853 77 61.5C77 59.0147 76.1046 57 75 57C73.8954 57 73 59.0147 73 61.5C73 63.9853 73.8954 66 75 66Z" fill="#FDB797"/>
<g opacity="0.5">
<path opacity="0.5" d="M52.5 115C81.4949 115 105 89.2564 105 57.5C105 25.7436 81.4949 0 52.5 0C23.5051 0 0 25.7436 0 57.5C0 89.2564 23.5051 115 52.5 115Z" fill="url(#paint1_linear)"/>
</g>
<path d="M52.5 113C80.9427 113 104 87.9279 104 57C104 26.0721 80.9427 1 52.5 1C24.0573 1 1 26.0721 1 57C1 87.9279 24.0573 113 52.5 113Z" fill="#F5F5F5"/>
<path d="M52.6381 114C62.7203 114.018 72.5843 110.683 81 104.41C79.0985 92.6689 71.8627 92 71.8627 92H31.9606C31.9606 92 25.1325 92.6331 23 103.433C31.6765 110.329 42.03 114.021 52.6381 114V114Z" fill="#6C63FF"/>
<path d="M52 83C65.8071 83 77 70.9117 77 56C77 41.0883 65.8071 29 52 29C38.1929 29 27 41.0883 27 56C27 70.9117 38.1929 83 52 83Z" fill="#333333"/>
<path opacity="0.1" d="M44 79H60V92.5386C60 94.7821 59.1576 96.9338 57.6579 98.5206C56.1583 100.107 54.1242 100.999 52.003 101V101C49.8813 101 47.8465 100.109 46.3462 98.5217C44.8459 96.9349 44.003 94.7827 44.003 92.5386V79H44Z" fill="black"/>
<path d="M44.5042 78H59.4928C59.6273 78 59.7563 78.0591 59.8514 78.1643C59.9466 78.2695 60 78.4121 60 78.5609V92.1529C60.0002 93.315 59.7934 94.4656 59.3913 95.5392C58.9892 96.6128 58.3998 97.5882 57.6568 98.4098C56.9137 99.2314 56.0315 99.8831 55.0607 100.327C54.0898 100.772 53.0492 101 51.9985 101V101C49.8772 101 47.8427 100.068 46.3427 98.4092C44.8427 96.7504 44 94.5006 44 92.1546V78.5609C44 78.4127 44.053 78.2706 44.1475 78.1655C44.2419 78.0604 44.3702 78.0009 44.5042 78V78Z" fill="#FDB797"/>
<path opacity="0.1" d="M44 85.277C49.1567 87.5563 54.8329 87.5747 60 85.329V83H44V85.277Z" fill="black"/>
<path d="M52 86C64.7025 86 75 74.8071 75 61C75 47.1929 64.7025 36 52 36C39.2974 36 29 47.1929 29 61C29 74.8071 39.2974 86 52 86Z" fill="#FDB797"/>
<path opacity="0.1" d="M36 38.2431C36 38.2431 45.6839 59.484 73 47.1486L66.6402 36.3724L55.3663 32L36 38.2431Z" fill="black"/>
<path d="M36 38.2458C36 38.2458 45.6839 59.4847 73 47.1472L66.6402 36.372L55.3663 32L36 38.2458Z" fill="#333333"/>
<path d="M35.4826 36.6925C36.1395 34.5645 37.2749 32.6327 38.7933 31.0591C43.3405 26.3553 50.7954 25.3634 54.619 20C55.5349 21.4886 54.8266 23.7774 53.2453 24.4163C56.9086 24.3907 61.1535 24.0553 63.2248 20.9024C63.7367 22.1494 63.8999 23.5228 63.6954 24.863C63.4908 26.2032 62.927 27.4551 62.0694 28.4732C65.316 28.6329 68.7855 30.9329 68.99 34.327C69.1305 36.5887 67.7689 38.7289 65.9998 40.0259C64.2307 41.3228 62.0755 41.9186 59.9614 42.4057C53.7887 43.832 31.4544 49.8008 35.4826 36.6925Z" fill="#333333"/>
<path d="M29 66C30.1046 66 31 63.9853 31 61.5C31 59.0147 30.1046 57 29 57C27.8954 57 27 59.0147 27 61.5C27 63.9853 27.8954 66 29 66Z" fill="#FDB797"/>
<path d="M75 66C76.1046 66 77 63.9853 77 61.5C77 59.0147 76.1046 57 75 57C73.8954 57 73 59.0147 73 61.5C73 63.9853 73.8954 66 75 66Z" fill="#FDB797"/>
<g opacity="0.5">
<path opacity="0.5" d="M52.5 115C81.4949 115 105 89.2564 105 57.5C105 25.7436 81.4949 0 52.5 0C23.5051 0 0 25.7436 0 57.5C0 89.2564 23.5051 115 52.5 115Z" fill="url(#paint2_linear)"/>
</g>
<path d="M52.5 113C80.9427 113 104 87.9279 104 57C104 26.0721 80.9427 1 52.5 1C24.0573 1 1 26.0721 1 57C1 87.9279 24.0573 113 52.5 113Z" fill="#F5F5F5"/>
<g filter="url(#filter0_d)">
<path d="M52.6381 114C62.7203 114.018 72.5843 110.683 81 104.41C79.0985 92.6689 71.8627 92 71.8627 92H31.9606C31.9606 92 25.1325 92.6331 23 103.433C31.6765 110.329 42.03 114.021 52.6381 114V114Z" fill="#DFAB24"/>
</g>
<path d="M52 83C65.8071 83 77 70.9117 77 56C77 41.0883 65.8071 29 52 29C38.1929 29 27 41.0883 27 56C27 70.9117 38.1929 83 52 83Z" fill="#333333"/>
<path opacity="0.1" d="M44 79H60V92.5386C60 94.7821 59.1576 96.9338 57.6579 98.5206C56.1583 100.107 54.1242 100.999 52.003 101V101C49.8813 101 47.8465 100.109 46.3462 98.5217C44.8459 96.9349 44.003 94.7827 44.003 92.5386V79H44Z" fill="black"/>
<path d="M44.5042 78H59.4928C59.6273 78 59.7563 78.0591 59.8514 78.1643C59.9466 78.2695 60 78.4121 60 78.5609V92.1529C60.0002 93.315 59.7934 94.4656 59.3913 95.5392C58.9892 96.6128 58.3998 97.5882 57.6568 98.4098C56.9137 99.2314 56.0315 99.8831 55.0607 100.327C54.0898 100.772 53.0492 101 51.9985 101V101C49.8772 101 47.8427 100.068 46.3427 98.4092C44.8427 96.7504 44 94.5006 44 92.1546V78.5609C44 78.4127 44.053 78.2706 44.1475 78.1655C44.2419 78.0604 44.3702 78.0009 44.5042 78V78Z" fill="#FDB797"/>
<path opacity="0.1" d="M44 85.277C49.1567 87.5563 54.8329 87.5747 60 85.329V83H44V85.277Z" fill="black"/>
<path d="M52 86C64.7025 86 75 74.8071 75 61C75 47.1929 64.7025 36 52 36C39.2974 36 29 47.1929 29 61C29 74.8071 39.2974 86 52 86Z" fill="#FDB797"/>
<path opacity="0.1" d="M36 38.2431C36 38.2431 45.6839 59.484 73 47.1486L66.6402 36.3724L55.3663 32L36 38.2431Z" fill="black"/>
<path d="M36 38.2458C36 38.2458 45.6839 59.4847 73 47.1472L66.6402 36.372L55.3663 32L36 38.2458Z" fill="#333333"/>
<path d="M35.4826 36.6925C36.1395 34.5645 37.2749 32.6327 38.7933 31.0591C43.3405 26.3553 50.7954 25.3634 54.619 20C55.5349 21.4886 54.8266 23.7774 53.2453 24.4163C56.9086 24.3907 61.1535 24.0553 63.2248 20.9024C63.7367 22.1494 63.8999 23.5228 63.6954 24.863C63.4908 26.2032 62.927 27.4551 62.0694 28.4732C65.316 28.6329 68.7855 30.9329 68.99 34.327C69.1305 36.5887 67.7689 38.7289 65.9998 40.0259C64.2307 41.3228 62.0755 41.9186 59.9614 42.4057C53.7887 43.832 31.4544 49.8008 35.4826 36.6925Z" fill="#333333"/>
<path d="M29 66C30.1046 66 31 63.9853 31 61.5C31 59.0147 30.1046 57 29 57C27.8954 57 27 59.0147 27 61.5C27 63.9853 27.8954 66 29 66Z" fill="#FDB797"/>
<path d="M75 66C76.1046 66 77 63.9853 77 61.5C77 59.0147 76.1046 57 75 57C73.8954 57 73 59.0147 73 61.5C73 63.9853 73.8954 66 75 66Z" fill="#FDB797"/>
<defs>
<filter id="filter0_d" x="19" y="92" width="66" height="30" filterUnits="userSpaceOnUse" color-interpolation-filters="sRGB">
<feFlood flood-opacity="0" result="BackgroundImageFix"/>
<feColorMatrix in="SourceAlpha" type="matrix" values="0 0 0 0 0 0 0 0 0 0 0 0 0 0 0 0 0 0 127 0"/>
<feOffset dy="4"/>
<feGaussianBlur stdDeviation="2"/>
<feColorMatrix type="matrix" values="0 0 0 0 0 0 0 0 0 0 0 0 0 0 0 0 0 0 0.25 0"/>
<feBlend mode="normal" in2="BackgroundImageFix" result="effect1_dropShadow"/>
<feBlend mode="normal" in="SourceGraphic" in2="effect1_dropShadow" result="shape"/>
</filter>
<linearGradient id="paint0_linear" x1="52.5" y1="115" x2="52.5" y2="0" gradientUnits="userSpaceOnUse">
<stop stop-color="#808080" stop-opacity="0.25"/>
<stop offset="0.54" stop-color="#808080" stop-opacity="0.12"/>
<stop offset="1" stop-color="#808080" stop-opacity="0.1"/>
</linearGradient>
<linearGradient id="paint1_linear" x1="52.5" y1="115" x2="52.5" y2="0" gradientUnits="userSpaceOnUse">
<stop stop-color="#808080" stop-opacity="0.25"/>
<stop offset="0.54" stop-color="#808080" stop-opacity="0.12"/>
<stop offset="1" stop-color="#808080" stop-opacity="0.1"/>
</linearGradient>
<linearGradient id="paint2_linear" x1="52.5" y1="115" x2="52.5" y2="0" gradientUnits="userSpaceOnUse">
<stop stop-color="#808080" stop-opacity="0.25"/>
<stop offset="0.54" stop-color="#808080" stop-opacity="0.12"/>
<stop offset="1" stop-color="#808080" stop-opacity="0.1"/>
</linearGradient>
</defs>
</svg>
