<svg width="34" height="20" viewBox="0 0 34 20" fill="none" xmlns="http://www.w3.org/2000/svg">
<path d="M31.1133 12.4801C31.0651 12.2546 31.0702 12.0131 31.1277 11.7921C31.2197 11.4554 31.4439 11.2125 31.5227 10.8685C31.6693 10.2294 31.2743 9.63121 31.032 9.05206C30.8098 8.51471 30.7091 7.89404 30.7434 7.27338C30.7811 6.60703 30.974 5.96975 30.9888 5.30166C31.0019 4.67912 30.8593 4.07351 30.7186 3.48351C30.6023 2.99589 30.484 2.50264 30.2874 2.06968C29.9157 1.25106 29.2554 0.736545 28.5764 0.651516C28.256 0.61117 27.9425 0.75867 27.6276 0.700971C27.1903 0.621148 26.7769 0.460634 26.331 0.440678C25.9074 0.422891 25.4392 0.49881 25.1506 0.937838C24.9301 1.27405 24.8595 1.7595 24.6577 2.1187C24.3713 2.62845 23.8705 2.80327 23.5537 3.27527C23.4168 3.48388 23.3207 3.73932 23.2749 4.01644C23.229 4.29356 23.2349 4.58281 23.2921 4.85569C23.336 5.05698 23.4077 5.24396 23.4543 5.44395C23.6503 6.2795 23.393 7.17317 23.2375 8.0252C23.22 8.09481 23.2168 8.17003 23.2283 8.24211C23.2529 8.34623 23.3301 8.40089 23.3942 8.46249C23.604 8.66465 23.711 9.0308 23.7316 9.3887C23.7521 9.74661 23.6936 10.1032 23.6359 10.4529C23.489 11.3418 23.3053 12.294 22.8211 12.8853C22.7331 12.5887 22.6292 12.3021 22.5101 12.0281C22.2138 11.3487 21.9946 10.5097 21.9909 9.70669C21.9907 9.70424 21.9907 9.70177 21.9909 9.69932C21.9909 9.65594 21.9924 9.61255 21.9943 9.56917C22.0326 8.6217 22.3221 7.70764 22.3157 6.76451C22.3157 6.68816 22.3141 6.61166 22.3111 6.53502C22.2733 5.72767 21.9992 4.98106 21.6848 4.30517C21.4502 3.80063 21.1859 3.31345 20.8473 2.946C20.3238 2.38247 19.6586 2.13779 19.0051 2.00851C18.3516 1.87923 17.7569 1.75776 17.0982 1.69529C16.3898 1.62805 15.6102 1.59031 15.0502 2.2072C14.32 3.01151 14.2795 4.56503 13.7229 5.61054C13.3917 6.23264 12.8642 6.71332 12.6897 7.42001C12.6425 7.24659 12.6032 7.06909 12.572 6.88858C12.5701 6.87644 12.5683 6.86472 12.5664 6.85258C12.7769 5.99986 12.8258 5.08406 12.7084 4.19628C12.7223 4.0525 12.7294 3.90757 12.7296 3.76246C12.733 3.60454 12.7209 3.44672 12.6937 3.29349C12.6149 2.87095 12.3975 2.533 12.1874 2.21241C12.1109 2.09001 12.0279 1.97616 11.939 1.87186C11.3892 0.929647 10.6206 0.294565 9.77038 0.0800369C8.92016 -0.134491 8.04371 0.0855048 7.29758 0.700735C6.55144 1.31597 5.9842 2.28636 5.69716 3.43862C5.41013 4.59087 5.422 5.84994 5.73064 6.99097C5.70365 7.28683 5.62269 7.57446 5.47395 7.78312C5.40618 7.87813 5.31847 7.997 5.33319 8.11847C5.32862 8.15306 5.33206 8.18881 5.343 8.22042C5.35807 8.25828 5.37905 8.29077 5.40434 8.31543C5.61888 8.54736 5.88608 8.66003 6.15539 8.63212C6.38263 9.57689 6.82814 10.3859 7.42012 10.9288C7.42012 10.9577 7.4194 10.9857 7.41797 11.0129C7.41797 11.0611 7.41521 11.1088 7.41368 11.1574C7.41368 11.1682 7.41368 11.1791 7.41368 11.1899C7.41368 11.186 7.41368 11.1817 7.41368 11.1774C7.41368 11.173 6.34583 13.1465 5.35895 13.2198C4.83208 13.2588 4.37237 13.7616 4.02399 14.3364C3.60568 15.0262 3.34746 15.8193 3.32538 16.0388C3.2846 16.4414 3 18.3979 3 18.3979H11.1987C11.1018 19.1024 10.9711 20 10.9711 20H24.2437C24.2131 19.3966 24.179 18.8387 24.1474 18.3662H25.8161L25.8142 18.3805H33.5118L34 17.3441C33.8789 14.3243 32.6197 12.6641 31.1133 12.4801ZM11.9491 9.10672C12.1223 9.23852 12.3083 9.33326 12.5011 9.38783C12.5848 9.41213 12.6784 9.42731 12.7498 9.36094C12.7972 9.31034 12.8322 9.24014 12.8501 9.16008L12.8538 9.17309C13.0608 9.91059 13.2525 10.6715 13.2896 11.4637C13.293 11.5383 13.2951 11.6129 13.2954 11.688C13.2962 12.1398 13.2303 12.587 13.1019 13.0007C12.4085 12.4849 11.7399 11.9052 11.1002 11.2654L11.057 11.2394C11.057 11.2442 11.072 11.2984 11.0898 11.3899C11.0941 11.4121 11.0987 11.4363 11.1033 11.4624C11.0594 11.2619 11.0196 11.0572 10.9846 10.8485C10.9806 10.8238 10.9766 10.7991 10.9726 10.7743C11.3903 10.3407 11.7257 9.76789 11.9491 9.10672V9.10672Z" fill="url(#paint0_linear)"/>
<path d="M26.3175 0.00241181C25.8788 -0.0157564 25.3933 0.0609047 25.0948 0.50226C24.8662 0.839924 24.7933 1.32825 24.5841 1.6894C24.2875 2.2021 23.7687 2.37758 23.4401 2.85217C23.2983 3.0619 23.1987 3.31873 23.1512 3.59737C23.1036 3.87601 23.1098 4.16684 23.169 4.44123C23.2145 4.64329 23.2888 4.83162 23.3372 5.03236C23.5402 5.8743 23.2752 6.77075 23.1112 7.62732C23.0929 7.69756 23.0897 7.77352 23.1019 7.84622C23.127 7.9508 23.2074 8.00575 23.2736 8.06779C23.4908 8.27118 23.6019 8.63898 23.6216 8.99835C23.6412 9.35773 23.5822 9.71666 23.5225 10.0681C23.364 10.9986 23.1638 12.0005 22.6135 12.5868C22.3811 12.8372 22.0706 13.0401 22.0099 13.4389C21.9389 13.906 22.2636 14.303 22.5751 14.5144C23.4895 15.1348 24.5512 15.1437 25.5515 15.4202C26.4324 15.6639 27.311 16.1256 28.2026 15.9679C28.5999 15.8979 28.9798 15.706 29.3559 15.5159L31.6974 14.3314C31.7635 14.3037 31.8257 14.2606 31.8814 14.2042C32.0224 14.0429 32.0273 13.7363 31.9504 13.5072C31.8736 13.2781 31.7342 13.1026 31.6115 12.9147C31.3443 12.5039 31.1409 11.9239 31.2868 11.4107C31.3836 11.0722 31.6144 10.828 31.6961 10.4802C31.8478 9.83764 31.4379 9.23587 31.1893 8.6536C30.9594 8.11393 30.8551 7.49067 30.8904 6.86735C30.9295 6.19734 31.1293 5.55658 31.1438 4.8848C31.1574 4.2591 31.0098 3.65024 30.8639 3.05689C30.7435 2.56679 30.6209 2.07093 30.4172 1.63534C30.0321 0.81245 29.3481 0.295319 28.6445 0.209352C28.3123 0.169028 27.9879 0.317033 27.6616 0.259426C27.208 0.182765 26.7794 0.0214663 26.3175 0.00241181Z" fill="#F7D6C8"/>
<path d="M26.8254 18C26.8254 18 24.4546 15.5861 25.3765 12.8033C25.5898 12.16 25.6841 11.5514 25.7034 10.9956C25.7085 10.8492 25.7085 10.7024 25.7034 10.556C25.7034 10.549 25.7034 10.542 25.7034 10.5349C25.7003 10.4594 25.6962 10.3851 25.691 10.3121C25.5812 8.84295 25 7.88553 25 7.88553C25 7.88553 28.9325 6.02173 28.2741 7.70201C27.9685 8.48199 28.0599 9.24699 28.2646 10.0387C28.2862 10.122 28.3092 10.2063 28.3332 10.2901C28.5696 11.1248 28.8976 11.9896 28.9893 12.9273C29.1773 14.8525 26.8254 18 26.8254 18Z" fill="#EFB7B9"/>
<path opacity="0.1" d="M27.9334 7.75359C27.6596 8.59063 27.7414 9.4116 27.9248 10.2612C27.5849 10.6875 27.1948 10.9383 26.7913 10.99C26.3877 11.0417 25.984 10.8925 25.6183 10.5566C25.5207 8.978 25 7.95054 25 7.95054C25 7.95054 28.5235 5.94988 27.9334 7.75359Z" fill="black"/>
<path d="M27 11C28.6569 11 30 9.20914 30 7C30 4.79086 28.6569 3 27 3C25.3431 3 24 4.79086 24 7C24 9.20914 25.3431 11 27 11Z" fill="#EFB7B9"/>
<path opacity="0.1" d="M26.7321 18C26.7321 18 24.261 15.8089 25.2219 13.2829C25.4443 12.699 25.5425 12.1466 25.5626 11.6421C25.6188 12.266 25.9232 13.0415 26.4773 14.115C26.7177 14.5824 26.8211 15.236 26.8538 15.8892L26.9088 15.9457L27.1792 15.7145C27.2093 14.9921 27.3126 14.262 27.5572 13.7444C28.2 12.3845 28.3526 11.7046 28.3051 11C28.5515 11.7577 28.8935 12.5426 28.989 13.3938C29.1834 15.143 26.7321 18 26.7321 18Z" fill="black"/>
<path d="M30.9593 12.6585C29.3742 12.5166 28.3714 11 28.3714 11C28.4558 11.7104 28.3187 12.3463 27.5795 13.711C27.3178 14.195 27.2069 14.8787 27.1745 15.5581L26.8834 15.775L26.8242 15.722C26.7889 15.1096 26.678 14.4956 26.4189 14.0575C25.68 12.8084 25.3514 11.9887 25.4371 11.3381C25.4371 11.3381 24.6242 12.9643 23.0407 13.0947C21.4573 13.225 20.1271 14.6041 20 17.1281L20.5066 17.9868H25.5034L25.5015 18H33.4915L34 17.0619C33.8729 14.3062 32.5443 12.8004 30.9593 12.6585Z" fill="#DFAB24"/>
<path opacity="0.05" d="M30.9593 12.6585C29.3742 12.5166 28.3714 11 28.3714 11C28.4558 11.7104 28.3187 12.3463 27.5795 13.711C27.3178 14.195 27.2069 14.8787 27.1745 15.5581L26.8834 15.775L26.8242 15.722C26.7889 15.1096 26.678 14.4956 26.4189 14.0575C25.68 12.8084 25.3514 11.9887 25.4371 11.3381C25.4371 11.3381 24.6242 12.9643 23.0407 13.0947C21.4573 13.225 20.1271 14.6041 20 17.1281L20.5066 17.9868H25.5034L25.5015 18H33.4915L34 17.0619C33.8729 14.3062 32.5443 12.8004 30.9593 12.6585Z" fill="black"/>
<path opacity="0.1" d="M28.8908 4.81995C28.7696 5.24879 28.5545 5.61093 28.3194 5.92888C27.9946 6.36855 27.5862 6.75581 27.1396 6.72592C27.3831 6.40164 27.5593 5.98766 27.6489 5.52949C27.3672 5.76427 27.1542 6.13594 26.8851 6.40061C26.6161 6.66528 26.2359 6.80173 25.9729 6.52536C26.4505 6.18203 26.8473 5.64604 27.1142 4.98369C26.4755 5.22064 26.1477 6.249 25.5724 6.71076C25.3027 6.92735 24.9873 7.00879 24.6783 6.99926C24.4586 6.99276 24.2138 6.91955 24.0914 6.65878C24.0199 6.50717 24.0033 6.31657 24.0005 6.13334C23.9872 5.30251 24.2238 4.48727 24.5883 3.84054C24.9528 3.19381 25.4366 2.70215 25.9541 2.32053C26.1383 2.18451 26.3304 2.06062 26.5355 2.0173C26.7906 1.96446 27.0506 2.04199 27.3008 2.1243C27.6262 2.23086 27.9534 2.34782 28.2531 2.55747C28.8926 3.01014 29.172 3.83058 28.8908 4.81995Z" fill="black"/>
<path d="M28.8908 4.81995C28.7696 5.24879 28.5545 5.61093 28.3194 5.92888C27.9946 6.36855 27.5862 6.75581 27.1396 6.72592C27.3831 6.40164 27.5593 5.98766 27.6489 5.52949C27.3672 5.76427 27.1542 6.13594 26.8851 6.40061C26.6161 6.66528 26.2359 6.80173 25.9729 6.52536C26.4505 6.18203 26.8473 5.64604 27.1142 4.98369C26.4755 5.22064 26.1477 6.249 25.5724 6.71076C25.3027 6.92735 24.9873 7.00879 24.6783 6.99926C24.4586 6.99276 24.2138 6.91955 24.0914 6.65878C24.0199 6.50717 24.0033 6.31657 24.0005 6.13334C23.9872 5.30251 24.2238 4.48727 24.5883 3.84054C24.9528 3.19381 25.4366 2.70215 25.9541 2.32053C26.1383 2.18451 26.3304 2.06062 26.5355 2.0173C26.7906 1.96446 27.0506 2.04199 27.3008 2.1243C27.6262 2.23086 27.9534 2.34782 28.2531 2.55747C28.8926 3.00928 29.172 3.83058 28.8908 4.81995Z" fill="#F7D6C8"/>
<path d="M9.5 10C11.433 10 13 7.76142 13 5C13 2.23858 11.433 0 9.5 0C7.567 0 6 2.23858 6 5C6 7.76142 7.567 10 9.5 10Z" fill="#C3705A"/>
<path d="M12 14.7324C12 14.7324 9.00967 15.8396 8.93561 15.9443C8.86155 16.0489 6.41842 16.2343 7.12967 14.0724C7.39098 13.2786 7.49969 12.2005 7.53267 11.1539C7.53406 11.1094 7.53546 11.0654 7.53658 11.0214C7.58157 9.26704 7.42172 7.63914 7.42172 7.63914C7.42172 7.63914 10.8871 5.6598 10.632 8.66758C10.5683 9.41569 10.6211 10.1674 10.7368 10.8743C10.7754 11.1102 10.8206 11.3409 10.8709 11.5647C11.2756 13.3679 12 14.7324 12 14.7324Z" fill="#ECB4B6"/>
<path opacity="0.1" d="M11 11.1453C10.4454 11.6723 9.77853 11.9697 9.08849 11.9978C8.39846 12.0259 7.71817 11.7834 7.13859 11.3026C7.19288 9.42556 7 7.68383 7 7.68383C7 7.68383 11.1814 5.56609 10.8735 8.78419C10.797 9.58504 10.8607 10.3893 11 11.1453Z" fill="black"/>
<path d="M9 12C10.6569 12 12 9.98528 12 7.5C12 5.01472 10.6569 3 9 3C7.34315 3 6 5.01472 6 7.5C6 9.98528 7.34315 12 9 12Z" fill="#ECB4B6"/>
<path opacity="0.1" d="M12 14.6922C12 14.6922 9.00967 15.8345 8.93561 15.9425C8.86155 16.0504 6.41842 16.2417 7.12967 14.0112C7.39098 13.1922 7.49969 12.0799 7.53267 11C7.56061 11.5643 7.77692 12.9309 7.80459 13.3856C7.80635 13.4122 7.80991 13.4384 7.81521 13.464C7.85573 13.6661 8.00022 13.8991 8.17433 14.1199L8.18467 14.1329C8.40124 14.4038 8.66999 14.5649 8.95203 14.593C9.23408 14.6211 9.51481 14.5147 9.75362 14.2892C10.0022 14.0556 10.2408 13.7992 10.4679 13.5215C10.7932 13.1209 10.8947 12.5812 10.9073 12.1044C10.9125 11.8756 10.9003 11.6466 10.8709 11.4218C11.2756 13.2843 12 14.6922 12 14.6922Z" fill="black"/>
<path d="M17 18H3C3 18 3.29303 16.1038 3.33471 15.7132C3.35747 15.4996 3.62325 14.7305 4.05382 14.0627C4.41225 13.5072 4.88513 13.018 5.42727 12.98C6.44197 12.9091 7.54067 11 7.54067 11C7.56504 11.5555 7.82216 13.006 7.85454 13.482C7.85656 13.5093 7.86064 13.5362 7.86672 13.5624C7.91321 13.7696 8.07896 14.0084 8.27869 14.2349L8.29056 14.2481C8.53895 14.526 8.84723 14.6913 9.1708 14.7202C9.49436 14.7491 9.81644 14.64 10.0904 14.4088C10.3755 14.1693 10.6492 13.9064 10.9099 13.6217C11.283 13.2111 11.3994 12.6578 11.4139 12.169C11.4212 11.8447 11.3917 11.5207 11.3263 11.2081C11.3081 11.1192 11.2943 11.0671 11.2923 11.0624L11.3369 11.0876C11.3369 11.0876 13.2326 12.9249 14.9693 13.676C15.1728 13.7643 15.3649 13.894 15.5387 14.0605C15.6795 14.1962 15.8091 14.3513 15.9253 14.5233C16.1604 14.8776 16.3549 15.2763 16.5024 15.7064C16.9051 16.8438 17 18 17 18Z" fill="#DFAB24"/>
<path opacity="0.05" d="M17 18H3C3 18 3.29303 16.1038 3.33471 15.7132C3.35747 15.4996 3.62325 14.7305 4.05382 14.0627C4.41225 13.5072 4.88513 13.018 5.42727 12.98C6.44197 12.9091 7.54067 11 7.54067 11C7.56504 11.5555 7.82216 13.006 7.85454 13.482C7.85656 13.5093 7.86064 13.5362 7.86672 13.5624C7.91321 13.7696 8.07896 14.0084 8.27869 14.2349L8.29056 14.2481C8.53895 14.526 8.84723 14.6913 9.1708 14.7202C9.49436 14.7491 9.81644 14.64 10.0904 14.4088C10.3755 14.1693 10.6492 13.9064 10.9099 13.6217C11.283 13.2111 11.3994 12.6578 11.4139 12.169C11.4212 11.8447 11.3917 11.5207 11.3263 11.2081C11.3081 11.1192 11.2943 11.0671 11.2923 11.0624L11.3369 11.0876C11.3369 11.0876 13.2326 12.9249 14.9693 13.676C15.1728 13.7643 15.3649 13.894 15.5387 14.0605C15.6795 14.1962 15.8091 14.3513 15.9253 14.5233C16.1604 14.8776 16.3549 15.2763 16.5024 15.7064C16.9051 16.8438 17 18 17 18Z" fill="black"/>
<path opacity="0.1" d="M10.5887 5.52547C10.6742 5.93999 10.786 6.40052 11.0796 6.61648C11.119 6.64026 11.1552 6.67143 11.1871 6.70892C11.2595 6.80799 11.2374 6.96261 11.2266 7.09691C11.1891 7.55786 11.3463 8.02502 11.6041 8.35539C11.8618 8.68577 12.2107 8.88764 12.5707 8.98049C12.6589 9.00329 12.7578 9.0178 12.8338 8.95521C12.8851 8.90603 12.9228 8.83772 12.9416 8.75997C13.0419 8.42379 12.9995 8.04616 12.9157 7.70294C12.8318 7.35972 12.7082 7.03225 12.6447 6.68198C12.4938 5.85086 12.6937 4.99198 12.7838 4.14677C12.8137 3.86573 12.8312 3.57598 12.7736 3.30198C12.6904 2.90487 12.4609 2.58652 12.2393 2.28516C12.1199 2.12308 11.998 1.9581 11.8447 1.85199C11.393 1.54068 10.8113 1.81717 10.3289 1.59042C10.1359 1.49964 9.97187 1.33384 9.78806 1.21736C9.39777 0.968643 8.93514 0.954964 8.50737 1.06813C8.07959 1.18129 7.67878 1.41384 7.28191 1.64431L6.97842 1.81758C6.55098 2.06629 6.09295 2.34734 5.86279 2.86756C5.61783 3.42136 5.68589 4.13019 5.44093 4.68399C5.36662 4.8498 5.26305 5.00897 5.24365 5.19965C5.2305 5.33727 5.26403 5.47489 5.29527 5.60795C5.37155 5.93169 5.43797 6.26455 5.43205 6.6028C5.42613 6.94105 5.34064 7.28759 5.1506 7.52553C5.07037 7.62584 4.96318 7.75434 5.0125 7.88243C5.02868 7.91824 5.05118 7.94887 5.07826 7.97196C5.23434 8.1214 5.41782 8.21874 5.6117 8.25497C5.80557 8.2912 6.00356 8.26515 6.18732 8.17922C6.33133 8.11 6.46746 7.99891 6.549 7.83517C6.60321 7.71523 6.64247 7.58549 6.6654 7.4505C6.7693 6.96261 6.87386 6.46643 6.86564 5.96113C6.86104 5.67096 6.81895 5.37831 6.85249 5.09063C6.88603 4.80296 7.0192 4.50657 7.24114 4.4274C7.40554 4.36812 7.58145 4.43984 7.75309 4.43776C8.00035 4.43528 8.30351 4.08957 8.53268 4.19112C8.72997 4.279 8.88615 4.75487 9.04924 4.93726C9.46288 5.40277 10.0403 5.64609 10.5887 5.52547Z" fill="black"/>
<path d="M10.5888 5.52754C10.6744 5.94206 10.7862 6.40259 11.08 6.61855C11.1188 6.64184 11.1546 6.6723 11.1862 6.70892C11.2586 6.80799 11.2366 6.96261 11.2257 7.09691C11.1882 7.55786 11.3455 8.02502 11.6034 8.35539C11.8613 8.68577 12.2103 8.88764 12.5705 8.98049C12.6587 9.00329 12.7577 9.0178 12.8337 8.95521C12.8851 8.90603 12.9228 8.83772 12.9416 8.75997C13.0419 8.42379 12.9995 8.04616 12.9156 7.70294C12.8317 7.35972 12.708 7.03225 12.6445 6.68198C12.4936 5.85086 12.6936 4.99198 12.7837 4.14677C12.8136 3.86572 12.8311 3.57598 12.7735 3.30198C12.6903 2.90487 12.4607 2.58652 12.2389 2.28516C12.1195 2.12308 11.9975 1.9581 11.8442 1.85199C11.3922 1.54068 10.8102 1.81717 10.3276 1.59042C10.1345 1.49964 9.97037 1.33384 9.78648 1.21736C9.39599 0.968643 8.93314 0.954964 8.50515 1.06813C8.07716 1.18129 7.67615 1.41384 7.27909 1.64431L6.9794 1.81841C6.55174 2.06712 6.09349 2.34817 5.86321 2.86839C5.61813 3.42219 5.68623 4.13102 5.44115 4.68482C5.3668 4.85063 5.26318 5.0098 5.24377 5.20048C5.23061 5.3381 5.26416 5.47572 5.29542 5.60878C5.37174 5.93252 5.43819 6.26538 5.43227 6.60363C5.42634 6.94188 5.34081 7.28842 5.15067 7.52635C5.0704 7.62667 4.96316 7.75517 5.0125 7.88326C5.02869 7.91907 5.05121 7.9497 5.0783 7.97279C5.23446 8.12223 5.41803 8.21957 5.612 8.2558C5.80597 8.29203 6.00406 8.26598 6.1879 8.18005C6.33199 8.11083 6.46818 7.99974 6.54977 7.836C6.604 7.71605 6.64328 7.58631 6.66622 7.45133C6.77018 6.96343 6.87479 6.46725 6.86656 5.96195C6.86196 5.67179 6.81985 5.37914 6.85341 5.09146C6.88696 4.80378 7.02019 4.5074 7.24224 4.42823C7.40673 4.36895 7.58273 4.44066 7.75445 4.43859C8.00183 4.43611 8.30514 4.0904 8.53443 4.19195C8.73181 4.27983 8.88807 4.7557 9.05124 4.93809C9.46244 5.40525 10.0401 5.64858 10.5888 5.52754Z" fill="#C3705A"/>
<path d="M21 7H14V16H21V7Z" fill="#463A3E"/>
<path opacity="0.05" d="M21 7H14V16H21V7Z" fill="black"/>
<path d="M20 20H14C14.0774 19.3434 14.304 18.6237 14.7454 17.8479C15.094 17.238 15.379 16.5522 15.5909 15.814C15.6479 15.6167 15.6989 15.419 15.744 15.2208C15.8766 14.6324 15.9668 14.0243 16.0131 13.4069C16.0131 13.3894 16.0158 13.3719 16.017 13.3544C16.048 12.9279 16.0605 12.4987 16.0544 12.0697C16.0544 12.0389 16.0544 12.0089 16.0544 11.9777C16.0329 10.925 15.9171 9.88142 15.71 8.87529L15.7023 8.8394C15.6371 8.53063 15.5894 8.35715 15.5894 8.35715C15.5894 8.35715 15.7085 8.26006 15.905 8.11695L15.9215 8.10499C16.6443 7.58317 18.3552 6.49445 19.1095 7.27027L19.1217 7.28269C19.3856 7.56523 19.5277 8.08382 19.4609 8.94753C19.4609 8.95075 19.4609 8.95444 19.4609 8.95766C19.4609 8.97376 19.4585 8.98941 19.4576 9.00367C19.4171 9.59898 19.398 10.1971 19.4003 10.7955C19.4003 10.8254 19.4003 10.8553 19.4003 10.8875C19.4003 11.0277 19.4013 11.1698 19.4034 11.3136C19.4034 11.333 19.4034 11.3523 19.4034 11.3716C19.4095 11.8364 19.4233 12.3163 19.4426 12.8032C19.4692 13.4782 19.5071 14.1657 19.5509 14.8403C19.5696 15.1288 19.5898 15.4155 19.6121 15.6975C19.6146 15.7307 19.617 15.7647 19.6195 15.7974C19.6452 16.1411 19.6718 16.478 19.6991 16.8047L19.7009 16.8258C19.805 18.1235 19.9201 19.2564 20 20Z" fill="#C17174"/>
<path opacity="0.1" d="M18.9875 9.15783C18.9875 9.1614 18.9875 9.16548 18.9875 9.16905C18.9542 9.84648 18.9384 10.5274 18.9402 11.2086C18.9402 11.2417 18.9402 11.2749 18.9402 11.3106C18.6293 12.0894 18.212 12.6357 17.7482 12.8709C17.2844 13.1062 16.7981 13.0183 16.3589 12.62C16.3589 12.5858 16.3589 12.5527 16.3589 12.518C16.3423 11.3375 16.2508 10.1675 16.0872 9.04056C16.0369 8.69842 16 8.50619 16 8.50619C16 8.50619 16.0919 8.39861 16.2436 8.24003C16.796 7.66386 18.144 6.41973 18.7257 7.31306C18.9291 7.62613 19.0387 8.20077 18.9875 9.15783Z" fill="black"/>
<path d="M17 13C18.6569 13 20 10.9853 20 8.5C20 6.01472 18.6569 4 17 4C15.3431 4 14 6.01472 14 8.5C14 10.9853 15.3431 13 17 13Z" fill="#C17174"/>
<path opacity="0.1" d="M17 20H11C11 20 11.2697 18.0483 11.308 17.6464C11.329 17.4265 11.5736 16.635 11.9699 15.9476C12.4788 15.3425 13.1092 15.0091 13.7603 15.0008C14.9077 14.9753 15.2418 15.5641 15.3323 15.9995C15.364 16.1455 15.3721 16.3005 15.3559 16.452L15.5731 16.9208L17 20Z" fill="black"/>
<path d="M17 20H11C11 20 11.2697 18.0483 11.308 17.6464C11.329 17.4265 11.5736 16.635 11.9699 15.9476C12.4788 15.3425 13.1092 15.0091 13.7603 15.0008C14.9077 14.9753 15.2418 15.5641 15.3323 15.9995C15.364 16.1455 15.3721 16.3005 15.3559 16.452L15.5731 16.9208L17 20Z" fill="#DFAB24"/>
<path opacity="0.1" d="M24 20H18C18.2861 19.0765 19.036 16.6144 19.0777 16.0451C19.0938 15.8247 19.2487 15.6179 19.4537 15.4424C19.5184 15.3861 19.5851 15.3351 19.6533 15.2894L19.6657 15.2809C19.7033 15.2558 19.7413 15.2326 19.7798 15.2113C20.2988 14.9231 20.869 14.9299 21.385 15.2305C21.8775 15.5146 22.5114 15.8973 23.0048 16.2556L23.0087 16.2586C23.1355 16.3509 23.2535 16.441 23.3574 16.5277C23.5652 16.7007 23.717 16.8588 23.7753 16.9852C23.802 17.0433 23.8316 17.3051 23.864 17.7114C23.9071 18.2607 23.9541 19.0757 24 20Z" fill="black"/>
<path d="M24 20H18C18.2861 19.0765 19.036 16.6144 19.0777 16.0451C19.0938 15.8247 19.2487 15.6179 19.4537 15.4424C19.5184 15.3861 19.5851 15.3351 19.6533 15.2894L19.6657 15.2809C19.7033 15.2558 19.7413 15.2326 19.7798 15.2113C20.2988 14.9231 20.869 14.9299 21.385 15.2305C21.8775 15.5145 22.5114 15.8973 23.0048 16.2556L23.0087 16.2586C23.1355 16.3509 23.2534 16.441 23.3574 16.5277C23.5652 16.7007 23.717 16.8588 23.7753 16.9852C23.802 17.0433 23.8316 17.3051 23.864 17.7114C23.9073 18.2607 23.9541 19.0761 24 20Z" fill="#DFAB24"/>
<path opacity="0.1" d="M23 15.4634C23 15.5968 22.9974 15.7303 22.9923 15.8639C22.9895 15.929 22.986 15.9941 22.9819 16.0592C22.9792 16.1061 22.9758 16.1525 22.9724 16.1989L22.9681 16.2527C22.9181 16.8836 22.8259 17.5111 22.8148 18.145C22.8148 18.175 22.8148 18.2049 22.8148 18.2348C22.8127 18.8302 22.8807 19.4164 22.973 20H19.211C19.2049 19.892 19.2018 19.783 19.2028 19.6759C19.2028 19.5791 19.2071 19.4823 19.2141 19.3851C19.2721 18.5863 19.5606 17.8387 19.6041 17.0451L19.6059 17.0086C19.6087 16.9492 19.6102 16.8893 19.6096 16.8294C19.6096 16.8242 19.6096 16.819 19.6096 16.8133C19.6049 16.5509 19.5763 16.2905 19.5247 16.0384C19.5222 16.0258 19.5198 16.0132 19.5173 16.0006C19.4648 15.7505 19.4034 15.5044 19.3334 15.263L19.3199 15.2148C19.2178 14.8538 19.1105 14.4958 19.0378 14.137C18.9801 13.8697 18.9502 13.592 18.9492 13.3125C18.9492 13.2626 18.9514 13.2127 18.9541 13.1628C18.9566 13.1221 18.9599 13.0813 18.9642 13.04C18.9709 12.9757 18.9799 12.9118 18.9912 12.8487C19.0525 12.5068 19.1834 12.1861 19.3088 11.8685C19.4484 11.5148 19.5814 11.1651 19.6053 10.7932C19.6084 10.7462 19.6095 10.699 19.6087 10.6518C19.6077 10.591 19.6036 10.5304 19.5964 10.4704C19.5642 10.2066 19.4683 9.96924 19.3895 9.72582C19.3815 9.70109 19.3735 9.67635 19.3659 9.65119C19.3659 9.64728 19.3634 9.64337 19.3625 9.63947C19.2092 9.1383 19.1203 8.60372 19.0268 8.07174C19.0228 8.04874 19.0188 8.02575 19.0145 8.00318C18.9915 7.87301 18.9679 7.74284 18.9428 7.61266C18.8054 6.90278 18.6098 6.18552 18.2376 5.67307C17.8654 5.16062 17.2718 4.90114 16.8058 5.22745C16.4026 5.51166 16.1843 6.14777 16.0859 6.76914C15.9875 7.3905 15.9795 8.0392 15.8516 8.65015C15.8424 8.6947 15.8322 8.7391 15.821 8.78336C15.8155 8.80592 15.8099 8.82675 15.8044 8.85148C15.7495 9.07278 15.6818 9.29191 15.6088 9.50973L15.6011 9.53273C15.3681 10.2344 15.0974 10.9239 15.0888 11.629V11.6381C15.0888 11.6572 15.0888 11.6758 15.0888 11.6949C15.0904 11.8625 15.1084 12.029 15.1422 12.1896C15.2035 12.4786 15.3145 12.7307 15.4439 12.9706C15.4694 13.0178 15.4956 13.0645 15.5223 13.1108C15.6511 13.3347 15.7909 13.5516 15.9133 13.7825L15.9172 13.7898C16.0103 13.9603 16.0888 14.1457 16.1512 14.3422C16.2251 14.5883 16.2638 14.8528 16.2648 15.1202C16.2659 15.3876 16.2293 15.6527 16.1573 15.9C16.1226 16.0142 16.0828 16.1252 16.038 16.2323C15.9592 16.425 15.8725 16.6124 15.8041 16.8129C15.7811 16.8802 15.7606 16.9487 15.7428 17.0182C15.5895 17.577 15.5564 18.1954 15.4313 18.772C15.3344 19.2148 15.1836 19.6302 14.9858 19.9996H11C11.0463 19.6789 11.2759 18.0903 11.3121 17.7337C11.3339 17.5167 11.5881 16.7357 11.9998 16.0575C11.9652 16.0961 11.9318 16.1351 11.8996 16.1742C11.6399 16.4874 11.4149 16.8539 11.2321 17.2616C11.241 17.2225 11.2502 17.183 11.2594 17.144C11.3155 16.9071 11.3762 16.6723 11.4378 16.4406C11.6163 15.7733 11.8149 15.0924 12.1706 14.5865C12.3714 14.301 12.6158 14.081 12.8071 13.7829C13.1444 13.2583 13.2839 12.5315 13.2799 11.819C13.2799 11.7452 13.2777 11.6719 13.2744 11.5986C13.2379 10.8175 13.0493 10.0699 12.8451 9.34224C12.7354 8.95172 12.6188 8.54124 12.6241 8.12728C12.6244 8.06922 12.6274 8.01124 12.6329 7.95372C12.7173 7.09587 13.3305 6.58212 13.6987 5.89003C14.2463 4.86036 14.2861 3.32995 15.0045 2.53936C15.5564 1.93188 16.3229 1.9692 17.0198 2.03515C17.6679 2.09677 18.2529 2.21609 18.8962 2.34366C19.5394 2.47123 20.1922 2.71075 20.7082 3.2718C21.0414 3.63368 21.3014 4.11316 21.5323 4.60999C21.8414 5.27561 22.1115 6.01066 22.1486 6.80515C22.1513 6.86199 22.1529 6.9184 22.1529 6.97438C22.1593 7.90295 21.8745 8.80289 21.8368 9.73536C21.8352 9.77876 21.834 9.82215 21.8337 9.86554C21.8335 9.86784 21.8335 9.87017 21.8337 9.87248C21.8269 10.6809 22.0462 11.5296 22.3445 12.2156C22.7683 13.1933 22.995 14.3165 23 15.4634V15.4634Z" fill="black"/>
<path d="M23 15.4776C23 15.5918 22.9969 15.7065 22.9923 15.8202C22.9895 15.8851 22.986 15.95 22.9819 16.0149C22.9778 16.0798 22.9732 16.1441 22.9681 16.2078C22.9182 16.8368 22.826 17.4624 22.8149 18.0944C22.8149 18.1429 22.8149 18.1917 22.8149 18.2402C22.8171 18.8333 22.8882 19.4182 22.9819 20H19.2173C19.2103 19.8923 19.206 19.7837 19.2053 19.6768C19.2045 19.5613 19.2083 19.4457 19.2167 19.3308C19.2746 18.5344 19.5629 17.789 19.6064 16.9978C19.6094 16.9398 19.6116 16.8818 19.6119 16.8247C19.6119 16.8113 19.6119 16.7975 19.6119 16.7841C19.608 16.5041 19.5772 16.2261 19.5203 15.9578C19.4678 15.7085 19.4064 15.463 19.3365 15.2224C19.2305 14.8465 19.1168 14.4731 19.0408 14.0976C18.9873 13.8487 18.9575 13.5907 18.9523 13.3306C18.9514 13.2619 18.9531 13.1932 18.9572 13.1247C18.9596 13.084 18.963 13.0434 18.9673 13.0023C18.974 12.9381 18.983 12.8744 18.9943 12.8115C19.0555 12.4706 19.1864 12.1509 19.3117 11.8343C19.4514 11.4813 19.5849 11.1317 19.6085 10.7606C19.6104 10.7324 19.6113 10.7039 19.6119 10.674C19.6133 10.5945 19.6092 10.5149 19.5996 10.4365C19.5675 10.1735 19.4716 9.93689 19.3928 9.6942C19.3849 9.66954 19.3769 9.64489 19.3693 9.6198C19.2139 9.11712 19.1242 8.58156 19.0304 8.04514C19.0035 7.892 18.9759 7.73886 18.9468 7.58701C18.8095 6.87928 18.6141 6.1642 18.2421 5.6533C17.8702 5.1424 17.278 4.8889 16.8126 5.21594C16.4098 5.49929 16.1916 6.13348 16.0933 6.75296C15.995 7.37245 15.987 8.01918 15.8592 8.62828C15.8451 8.69533 15.8286 8.76239 15.813 8.82901C15.756 9.05698 15.6849 9.28323 15.6102 9.50819C15.3709 10.2259 15.0924 10.9319 15.0982 11.6547V11.6638C15.0998 11.8309 15.1178 11.9969 15.1515 12.157C15.2128 12.4451 15.3237 12.6964 15.453 12.9357C15.4785 12.9827 15.5047 13.0292 15.5314 13.0754C15.6616 13.3012 15.8029 13.5197 15.926 13.7524C16.019 13.9224 16.0974 14.1072 16.1598 14.3031C16.2337 14.5485 16.2723 14.8121 16.2733 15.0788C16.2744 15.3454 16.2379 15.6096 16.1659 15.8561C16.1312 15.9701 16.0914 16.0807 16.0467 16.1875C15.968 16.3796 15.8813 16.5665 15.813 16.7663C15.79 16.8334 15.7695 16.9017 15.7517 16.9709C15.5985 17.5281 15.5654 18.1446 15.4404 18.7195C15.3385 19.1836 15.1773 19.6175 14.9647 19.9996H11C11 19.9996 11.28 18.0797 11.3198 17.6843C11.3398 17.4866 11.5545 16.8191 11.9068 16.1862C11.9375 16.1282 11.9724 16.0703 12.007 16.0132C11.7189 16.3347 11.4692 16.7194 11.2675 17.1526L11.2402 17.2132C11.3039 16.9368 11.3741 16.6638 11.4461 16.3947C11.6244 15.7294 11.8229 15.0506 12.1783 14.5462C12.3789 14.2616 12.6231 14.0423 12.8143 13.7451C13.1415 13.2359 13.283 12.5338 13.2867 11.8416C13.2867 11.749 13.2867 11.6569 13.2812 11.5652C13.2447 10.7865 13.0563 10.0411 12.8523 9.31568C12.7478 8.94278 12.6378 8.55431 12.6314 8.15891C12.63 8.0827 12.6329 8.00646 12.6403 7.93093C12.7248 7.08044 13.3376 6.57041 13.7055 5.87825C14.2527 4.85169 14.2925 3.32592 15.0103 2.53772C15.5618 1.93208 16.3277 1.96929 17.024 2.03504C17.6717 2.09647 18.2562 2.21544 18.899 2.34262C19.5417 2.4698 20.1949 2.70817 20.7099 3.26579C21.0429 3.62874 21.3027 4.1046 21.5334 4.60035C21.8422 5.26396 22.1121 5.99678 22.1492 6.78887C22.1529 6.86414 22.1543 6.93927 22.1535 7.01425C22.1483 7.91968 21.8744 8.79959 21.8376 9.71064C21.8352 9.77207 21.834 9.83307 21.8346 9.89493C21.8344 9.89723 21.8344 9.89955 21.8346 9.90185C21.8382 10.6909 22.0539 11.5137 22.345 12.1803C22.7759 13.1722 23.0027 14.314 23 15.4776V15.4776Z" fill="#463A3E"/>
<defs>
<linearGradient id="paint0_linear" x1="18.4994" y1="19.9991" x2="18.4994" y2="-8.58273e-05" gradientUnits="userSpaceOnUse">
<stop stop-color="#808080" stop-opacity="0.25"/>
<stop offset="0.54" stop-color="#808080" stop-opacity="0.12"/>
<stop offset="1" stop-color="#808080" stop-opacity="0.1"/>
</linearGradient>
</defs>
</svg>
