<svg width="22" height="43" viewBox="0 0 22 43" fill="none" xmlns="http://www.w3.org/2000/svg">
<path d="M4.89166 0.503219C5.89284 0.560026 6.97199 1.39523 7.812 3.09748C7.81209 3.09765 7.81217 3.09782 7.81226 3.098L13.8403 15.3872L7.46669 26.9333L1.74669 15.272C1.7466 15.2718 1.74651 15.2717 1.74642 15.2715C0.921109 13.5788 0.465554 11.2952 0.502033 8.92064C0.538523 6.54548 1.06349 4.32273 1.93468 2.73469C2.819 1.14265 3.90433 0.447197 4.89166 0.503219Z" fill="white" stroke="#DFAB24"/>
<path d="M20.0422 26.8956L14.0673 14.7147L7.10388 27.3291L13.0788 39.51C13.9512 41.2781 15.1522 42.3109 16.4195 42.3828C17.6868 42.4547 18.9174 41.5599 19.8425 39.8938C20.7626 38.2174 21.3 35.9094 21.3374 33.4739C21.3748 31.0385 20.9092 28.6735 20.0422 26.8956Z" fill="#DFAB24"/>
<path opacity="0.2" d="M21.3312 32.8064C21.2191 35.0021 20.6977 37.0458 19.863 38.5606C18.9379 40.2267 17.7073 41.1215 16.44 41.0496C15.1727 40.9777 13.9717 39.9449 13.0993 38.1768L7.461 26.6823L7.10388 27.3291L13.0788 39.5101C13.9512 41.2781 15.1522 42.3109 16.4195 42.3828C17.6868 42.4547 18.9174 41.5599 19.8425 39.8938C20.3412 38.9875 20.7323 37.8852 20.9892 36.6622C21.2461 35.4391 21.3627 34.1239 21.3312 32.8064Z" fill="black"/>
</svg>
