<svg width="41" height="34" viewBox="0 0 41 34" fill="none" xmlns="http://www.w3.org/2000/svg">
<path d="M29.2188 33.2081L3.1619 22.1199C2.41211 21.8008 1.87699 21.2618 1.63938 20.6489C1.40432 20.0425 1.46677 19.3843 1.82569 18.8066L7.96434 8.92731C8.01399 8.84741 8.08714 8.76985 8.18461 8.7033C8.28217 8.6367 8.39986 8.58414 8.53156 8.55236L8.41427 8.06631L8.53156 8.55236L29.0694 3.59664C29.7885 3.42311 30.5603 3.48555 31.2198 3.76619C31.8792 4.04681 32.3552 4.51375 32.5805 5.04557L33.0409 4.85054L32.5805 5.04557L39.3284 20.9748C39.4661 21.3 39.521 21.6411 39.4928 21.979C39.4646 22.3172 39.3533 22.6518 39.1601 22.9627L33.4768 32.1091C33.2975 32.3977 33.0471 32.6608 32.7352 32.8796C32.4231 33.0985 32.0575 33.2674 31.6581 33.3735C31.2587 33.4795 30.8364 33.5197 30.4161 33.4911C29.9957 33.4624 29.5888 33.3656 29.2188 33.2081Z" fill="#F2F2F2" stroke="#DFAB24"/>
<path opacity="0.1" d="M30.203 29.7013L3.38208 20.5064C2.51788 20.1495 3.32821 20.698 3.77259 20.0041L7.14416 9.00003L40 22.567L31.6937 30.8145C31.2493 31.5085 31.0672 30.0581 30.203 29.7013Z" fill="black"/>
<path d="M5.58004 20.7158L16.2306 4.2897C16.558 3.78478 17.4207 3.50278 18.2178 3.82783L38.9302 12.2743C39.7273 12.5994 39.9399 13.3199 39.6126 13.8248L28.962 30.2509C28.6346 30.7558 27.7719 31.0378 26.9748 30.7128L6.26241 22.2663C5.46533 21.9412 5.25266 21.2207 5.58004 20.7158Z" fill="white" stroke="black"/>
<path d="M19.521 21.9034L19.6648 22.0544L19.8733 22.0584L39.1414 22.4353C39.2231 22.4369 39.2984 22.455 39.3594 22.4833C39.4206 22.5117 39.4582 22.5457 39.4782 22.5724C39.4972 22.5977 39.4997 22.6147 39.5 22.6219C39.5002 22.6287 39.4992 22.6432 39.4845 22.6658L32.9141 32.7716C32.8205 32.9155 32.6867 33.0514 32.5143 33.167C32.3419 33.2825 32.137 33.3736 31.9101 33.4312C31.6832 33.4888 31.4424 33.5108 31.2023 33.4951C30.9621 33.4795 30.7311 33.4267 30.5227 33.3419L1.39699 21.4968L1.20863 21.96L1.39699 21.4968C1.18849 21.412 1.01022 21.2984 0.869323 21.1669C0.728641 21.0356 0.629452 20.8908 0.569793 20.7437C0.510436 20.5974 0.489525 20.4476 0.504835 20.3007C0.520178 20.1535 0.57249 20.004 0.665692 19.8606L0.246502 19.5881L0.665692 19.8606L7.35062 9.57871C7.35419 9.57322 7.36828 9.55562 7.40278 9.53733C7.4372 9.51907 7.48401 9.50464 7.53868 9.50094C7.59327 9.49725 7.64595 9.50495 7.69001 9.52051C7.73432 9.53615 7.76075 9.55633 7.77335 9.56956L19.521 21.9034Z" fill="white" stroke="#DFAB24"/>
<path d="M24.4369 8.07137L17.6389 5.29916L17.1446 6.06155L23.9426 8.83376L24.4369 8.07137Z" fill="black"/>
<path d="M35.4766 16.085L15.2887 7.85242L15.0062 8.28807L35.1942 16.5207L35.4766 16.085Z" fill="black"/>
<path d="M34.5234 17.5554L14.3354 9.32275L14.053 9.7584L34.2409 17.991L34.5234 17.5554Z" fill="black"/>
<path d="M33.5699 19.0257L13.382 10.7931L13.0995 11.2287L33.2874 19.4613L33.5699 19.0257Z" fill="black"/>
<path d="M20.3062 4.53295C21.1072 3.29761 20.496 1.78216 18.9412 1.14809C17.3863 0.51402 15.4765 1.00144 14.6755 2.23677C13.8745 3.47211 14.4857 4.98756 16.0405 5.62163C17.5954 6.2557 19.5052 5.76828 20.3062 4.53295Z" fill="white"/>
<path d="M19.1031 0.332089C18.4872 0.0607556 17.7912 -0.0480131 17.1031 0.0195386C16.415 0.0870902 15.7658 0.32793 15.2375 0.711597C14.7091 1.09527 14.3255 1.60453 14.135 2.175C13.9446 2.74546 13.9558 3.3515 14.1674 3.91648C14.379 4.48146 14.7813 4.98 15.3236 5.34907C15.8659 5.71813 16.5238 5.94114 17.2141 5.98989C17.9043 6.03864 18.5959 5.91094 19.2014 5.62294C19.807 5.33495 20.2992 4.89959 20.6159 4.37192C21.0379 3.66391 21.1156 2.84163 20.8321 2.0847C20.5487 1.32776 19.9271 0.697678 19.1031 0.332089V0.332089ZM16.0087 4.14087L15.2333 2.07046L15.9112 1.88415L16.4698 3.37578L20.1447 2.36573L20.3622 2.94646L16.0087 4.14087V4.14087Z" fill="#57B894"/>
</svg>
