<svg width="39" height="41" viewBox="0 0 39 41" fill="none" xmlns="http://www.w3.org/2000/svg">
<path id="Vector" d="M28.5007 0H28.4072C24.6854 0 21.3939 2.15301 19.5006 5.33004C17.6073 2.15301 14.3158 0 10.5941 0H10.5005C7.70744 0.029099 5.03771 1.26209 3.07151 3.43102C1.1053 5.59995 0.00151624 8.52955 0 11.5832C0 15.3752 1.51914 20.7557 4.48134 25.183C10.1251 33.6192 19.5006 41 19.5006 41C19.5006 41 28.8761 33.6206 34.5187 25.183C37.4821 20.7557 39 15.3752 39 11.5832C38.9985 8.52979 37.8949 5.60038 35.9289 3.43149C33.963 1.2626 31.2936 0.0294559 28.5007 0V0ZM27.1624 25.8321C26.7386 25.8303 26.3251 25.6885 25.9763 25.4252C25.6275 25.1619 25.3597 24.7894 25.208 24.3567H22.9829C22.8364 24.3557 22.6938 24.3048 22.5751 24.2109C22.4563 24.117 22.3674 23.985 22.3206 23.8332L21.6371 21.582L19.4744 29.8436C19.4323 30.0026 19.3441 30.1424 19.2231 30.242C19.1021 30.3416 18.9549 30.3956 18.8034 30.3958H18.7598C18.6017 30.3875 18.4511 30.3201 18.3331 30.2049C18.215 30.0898 18.1367 29.9338 18.1112 29.7631L15.8824 15.1079L14.2535 23.78C14.2161 23.9447 14.1294 24.091 14.0071 24.1956C13.8848 24.3001 13.734 24.3569 13.5787 24.3567H10.4444C10.3504 24.3611 10.2567 24.3446 10.1687 24.3083C10.0807 24.272 10.0003 24.2166 9.93245 24.1455C9.86456 24.0743 9.81054 23.9889 9.77363 23.8943C9.73673 23.7998 9.71771 23.698 9.71771 23.5952C9.71771 23.4924 9.73673 23.3907 9.77363 23.2961C9.81054 23.2015 9.86456 23.1161 9.93245 23.045C10.0003 22.9738 10.0807 22.9184 10.1687 22.8821C10.2567 22.8458 10.3504 22.8293 10.4444 22.8337H13.0299L15.3373 11.1741C15.3752 11.0017 15.4667 10.8491 15.5961 10.7423C15.7255 10.6355 15.8849 10.5811 16.0469 10.5885C16.2089 10.5959 16.3636 10.6646 16.4844 10.7829C16.6052 10.9012 16.6847 11.0616 16.7093 11.2369L18.9855 26.1866L20.9237 18.7949C20.9641 18.6392 21.0494 18.502 21.167 18.4037C21.2845 18.3054 21.428 18.2513 21.576 18.2495H21.5897C21.7363 18.2495 21.8792 18.3002 21.9979 18.3942C22.1166 18.4882 22.2051 18.6208 22.2508 18.7731L23.4868 22.8378H25.1806C25.301 22.4378 25.5201 22.082 25.8139 21.8096C26.1076 21.5372 26.4644 21.3588 26.845 21.2941C27.2257 21.2294 27.6152 21.281 27.9707 21.443C28.3262 21.6051 28.6338 21.8714 28.8596 22.2125C29.0854 22.5537 29.2206 22.9564 29.2503 23.3762C29.28 23.796 29.203 24.2167 29.0278 24.5917C28.8526 24.9667 28.586 25.2815 28.2575 25.5013C27.929 25.7212 27.5513 25.8375 27.1662 25.8375L27.1624 25.8321Z" fill="white"/>
</svg>
